#N canvas 1098 94 341 348 10;
#X obj 69 72 tgl 16 0 empty empty empty 0 -8 0 10 #fcfcfc #000000 #000000 0 1;
#X obj 46 247 *~;
#X obj 64 184 hsl 136 16 0 1 0 0 empty empty empty -2 -8 0 10 #fcfcfc #000000 #000000 0 1;
#X obj 61 205 pow 4;
#X obj 61 226 lop~ 1;
#X obj 46 268 dac~;
#N canvas 255 347 474 463 make 0;
#X obj 76 398 outlet~;
#X obj 77 171 noise~;
#X obj 77 192 *~;
#X obj 182 57 loadbang;
#X obj 182 78 bng 16 250 50 0 empty empty empty 0 -8 0 10 #fcfcfc #000000 #000000;
#X msg 182 120 1 \, 0 200;
#X obj 182 141 line~;
#X obj 86 243 *~;
#X obj 254 182 mtof;
#X obj 334 159 / 999999;
#X obj 334 138 random 1e+06;
#X obj 77 222 *~ 4;
#X obj 334 181 pow 2;
#X obj 182 162 pow~ 4;
#X obj 182 99 metro 90;
#X obj 126 223 * 90;
#X obj 254 160 + 30;
#X obj 254 138 random 60;
#X obj 48 143 expr~ 2*($v1>0.5) -1;
#X obj 77 262 vcf~;
#X obj 126 244 + 4;
#N canvas 92 117 450 300 tanh 0;
#X obj 51 50 inlet~;
#X obj 51 91 clip~ -3 3;
#X obj 69 131 *~;
#X obj 51 281 outlet~;
#X obj 127 131 sig~ 27;
#X obj 69 174 +~;
#X obj 69 217 /~;
#X obj 51 241 *~;
#X obj 109 174 *~ 9;
#X obj 109 198 +~;
#X text 153 193 // http://www.musicdsp.org/showone.php?id=238;
#X text 153 214 // y = x * (27 + x^2) / (27 + 9*x^2);
#X text 153 172 // pade-approximation of tanh function;
#X connect 0 0 1 0;
#X connect 1 0 2 0;
#X connect 1 0 2 1;
#X connect 1 0 7 0;
#X connect 2 0 5 0;
#X connect 2 0 8 0;
#X connect 4 0 5 1;
#X connect 4 0 9 1;
#X connect 5 0 6 0;
#X connect 6 0 7 1;
#X connect 7 0 3 0;
#X connect 8 0 9 0;
#X connect 9 0 6 1;
#X restore 77 340 pd tanh;
#X obj 49 59 * 2;
#X obj 49 101 mtof;
#X obj 49 38 random 3;
#X obj 49 80 + 40;
#X obj 48 122 phasor~;
#X obj 157 262 * 92;
#X obj 91 302 rev2~ 92;
#X connect 1 0 2 0;
#X connect 2 0 11 0;
#X connect 3 0 4 0;
#X connect 4 0 14 0;
#X connect 5 0 6 0;
#X connect 6 0 13 0;
#X connect 7 0 19 1;
#X connect 8 0 7 1;
#X connect 9 0 12 0;
#X connect 10 0 9 0;
#X connect 11 0 19 0;
#X connect 12 0 15 0;
#X connect 12 0 27 0;
#X connect 13 0 2 1;
#X connect 13 0 7 0;
#X connect 14 0 5 0;
#X connect 14 0 10 0;
#X connect 14 0 17 0;
#X connect 14 0 24 0;
#X connect 15 0 20 0;
#X connect 16 0 8 0;
#X connect 17 0 16 0;
#X connect 18 0 2 0;
#X connect 19 0 21 0;
#X connect 19 0 28 0;
#X connect 20 0 19 2;
#X connect 21 0 0 0;
#X connect 22 0 25 0;
#X connect 23 0 26 0;
#X connect 24 0 22 0;
#X connect 25 0 23 0;
#X connect 26 0 18 0;
#X connect 27 0 28 2;
#X connect 28 0 0 0;
#X restore 46 41 pd make some noise;
#X msg 69 93 pause \$1;
#X obj 46 128 spectro~;
#X text 165 131 <-- activate;
#X text 201 183 <-- listen;
#X connect 0 0 7 0;
#X connect 1 0 5 0;
#X connect 1 0 5 1;
#X connect 2 0 3 0;
#X connect 3 0 4 0;
#X connect 4 0 1 1;
#X connect 6 0 8 0;
#X connect 7 0 8 0;
#X connect 8 0 1 0;
